name D:\school\WTK\thesis\model\3dpredictsim\Results\MidTarsalJoint\Fal_s1_bCst_PF_Natali2010_ls148_MT_nl_fitted_Tmtp_ig24_v2.mot
datacolumns 128
datarows 4
range 0.00000000 0.03432248
endheader
time	pelvis_tilt	pelvis_list	pelvis_rotation	pelvis_tx	pelvis_ty	pelvis_tz	hip_flexion_l	hip_adduction_l	hip_rotation_l	hip_flexion_r	hip_adduction_r	hip_rotation_r	knee_angle_l	knee_angle_r	ankle_angle_l	ankle_angle_r	subtalar_angle_l	subtalar_angle_r	tmt_angle_l	tmt_angle_r	mtp_angle_l	mtp_angle_r	lumbar_extension	lumbar_bending	lumbar_rotation	arm_flex_l	arm_add_l	arm_rot_l	arm_flex_r	arm_add_r	arm_rot_r	elbow_flex_l	elbow_flex_r	pro_sup_l	pro_sup_r	glut_med1_l/activation	glut_med2_l/activation	glut_med3_l/activation	glut_min1_l/activation	glut_min2_l/activation	glut_min3_l/activation	semimem_l/activation	semiten_l/activation	bifemlh_l/activation	bifemsh_l/activation	sar_l/activation	add_long_l/activation	add_brev_l/activation	add_mag1_l/activation	add_mag2_l/activation	add_mag3_l/activation	tfl_l/activation	pect_l/activation	grac_l/activation	glut_max1_l/activation	glut_max2_l/activation	glut_max3_l/activation	iliacus_l/activation	psoas_l/activation	quad_fem_l/activation	gem_l/activation	peri_l/activation	rect_fem_l/activation	vas_med_l/activation	vas_int_l/activation	vas_lat_l/activation	med_gas_l/activation	lat_gas_l/activation	soleus_l/activation	tib_post_l/activation	flex_dig_l/activation	flex_hal_l/activation	tib_ant_l/activation	per_brev_l/activation	per_long_l/activation	per_tert_l/activation	ext_dig_l/activation	ext_hal_l/activation	ercspn_l/activation	intobl_l/activation	extobl_l/activation	glut_med1_r/activation	glut_med2_r/activation	glut_med3_r/activation	glut_min1_r/activation	glut_min2_r/activation	glut_min3_r/activation	semimem_r/activation	semiten_r/activation	bifemlh_r/activation	bifemsh_r/activation	sar_r/activation	add_long_r/activation	add_brev_r/activation	add_mag1_r/activation	add_mag2_r/activation	add_mag3_r/activation	tfl_r/activation	pect_r/activation	grac_r/activation	glut_max1_r/activation	glut_max2_r/activation	glut_max3_r/activation	iliacus_r/activation	psoas_r/activation	quad_fem_r/activation	gem_r/activation	peri_r/activation	rect_fem_r/activation	vas_med_r/activation	vas_int_r/activation	vas_lat_r/activation	med_gas_r/activation	lat_gas_r/activation	soleus_r/activation	tib_post_r/activation	flex_dig_r/activation	flex_hal_r/activation	tib_ant_r/activation	per_brev_r/activation	per_long_r/activation	per_tert_r/activation	ext_dig_r/activation	ext_hal_r/activation	ercspn_r/activation	intobl_r/activation	extobl_r/activation	
          0.00000000	         -2.92989887	         -1.98841389	          5.41251999	          0.00000000	          0.91729362	         -0.00304249	        -16.60123451	         -0.58558945	          6.54097131	         29.53450642	          3.06030025	         -3.06313005	         -7.29047920	         -9.50440191	         -1.46344297	          6.98731478	          6.31107460	         -5.35876141	          6.45361789	         -2.10554125	         11.10728484	          4.20032636	         -1.95865635	          0.09227726	         -2.06706521	          5.11124154	        -13.45078513	         15.93458236	         -5.00961516	        -13.48660305	          7.26910541	         33.59445731	         16.75290869	         86.51662706	         86.51662706	          0.27656478	          0.10316092	          0.07949368	          0.29528705	          0.19764072	          0.11965896	          0.05000063	          0.05000013	          0.05000007	          0.05673367	          0.11965666	          0.05750091	          0.05000072	          0.05000032	          0.05000065	          0.05000026	          0.31021982	          0.05952295	          0.05000078	          0.05000072	          0.05000050	          0.05000042	          0.47397217	          0.66984924	          0.05000005	          0.05000024	          0.06612036	          0.26317461	          0.05000014	          0.05000015	          0.05000014	          0.28391156	          0.40855587	          0.36081544	          0.29010918	          0.27912113	          0.36409111	          0.05000001	          0.05953400	          0.10240126	          0.05000011	          0.05000002	          0.05000008	          0.05000000	          0.05000002	          0.05000007	          0.05953400	          0.05953400	          0.05000008	          0.05953402	          0.05953401	          0.05574535	          0.17914620	          0.09306031	          0.19489918	          0.07783473	          0.05000008	          0.14749109	          0.20626435	          0.21987894	          0.19821484	          0.10441631	          0.05000006	          0.05000126	          0.15397481	          0.05000118	          0.05699338	          0.14778447	          0.05000015	          0.05000007	          0.18294220	          0.28637936	          0.13166229	          0.05000005	          0.07550885	          0.07388480	          0.06769615	          0.06712667	          0.06929832	          0.06265813	          0.05000001	          0.05000015	          0.05000012	          0.45683022	          0.26760292	          0.17179244	          0.12960139	          0.48877439	          0.23725044	          0.05953401	          0.12132950	          0.10049660	
          0.01144083	         -2.92936187	         -2.07833812	          5.71600589	          0.01711012	          0.91639269	         -0.00283882	        -16.53161063	         -0.89508000	          6.33519841	         28.96868326	          3.42268467	         -2.83181232	         -9.15022195	        -10.00416317	         -1.96239894	          6.26841480	          7.28638520	         -5.70889076	          5.87307749	         -2.22939252	         12.52737864	          4.15597907	         -1.75893701	          0.28157389	         -2.13528026	          4.87734874	        -13.45603627	         16.29819733	         -5.91727670	        -13.48316343	          7.13909381	         34.80928867	         16.35430595	         86.51662706	         86.51662706	          0.23227461	          0.08664032	          0.06676326	          0.24799866	          0.16598976	          0.10049631	          0.05000113	          0.05000037	          0.05000044	          0.05000010	          0.10049446	          0.13228562	          0.05000155	          0.05953435	          0.05003035	          0.05953415	          0.26054001	          0.05000448	          0.05000511	          0.05000260	          0.05000195	          0.05000288	          0.39806839	          0.62147616	          0.05657594	          0.05929567	          0.05553169	          0.22102885	          0.14585494	          0.14098497	          0.13516190	          0.23844480	          0.34312809	          0.32740049	          0.26050515	          0.23442186	          0.30578483	          0.05000002	          0.05000005	          0.10997089	          0.05000006	          0.05000002	          0.05000011	          0.05499276	          0.07088598	          0.05953426	          0.05000000	          0.05000001	          0.07624065	          0.05000002	          0.05000002	          0.05000002	          0.15045701	          0.07815727	          0.16368724	          0.06536999	          0.07088422	          0.12387145	          0.28101689	          0.29640065	          0.18952614	          0.09965924	          0.05000011	          0.07621954	          0.12931893	          0.05000023	          0.08253967	          0.14034136	          0.05000018	          0.07088569	          0.53647934	          0.24051743	          0.11057741	          0.06471731	          0.10558326	          0.10567152	          0.09052826	          0.06667501	          0.07088589	          0.05966405	          0.05953410	          0.05034329	          0.05953412	          0.46935964	          0.28379383	          0.21272368	          0.13254806	          0.41050019	          0.19925621	          0.05000000	          0.10189930	          0.08440267	
          0.02288165	         -2.92461374	         -2.17168483	          5.98817943	          0.03455078	          0.91555287	         -0.00265569	        -16.43370449	         -1.20994427	          6.12138509	         28.28412288	          3.67957786	         -2.56569903	        -11.04664830	        -10.65765040	         -2.55295014	          5.67953590	          8.22903194	         -6.06335976	          5.06810947	         -2.79172086	         14.04009043	          4.21563288	         -1.53566428	          0.48277765	         -2.19075475	          4.56273791	        -13.45653445	         16.59072997	         -6.85823707	        -13.48642342	          7.06834203	         36.00085867	         16.00994592	         86.51662706	         86.51662706	          0.30501029	          0.07276541	          0.05607155	          0.31909291	          0.13940754	          0.08440245	          0.05000061	          0.05000008	          0.05000007	          0.05000010	          0.08440107	          0.11110093	          0.05000064	          0.05000053	          0.05000062	          0.05000048	          0.21881718	          0.05005632	          0.05000037	          0.05000107	          0.05000067	          0.05000046	          0.33447056	          0.59138415	          0.05000009	          0.05000036	          0.05000021	          0.20199077	          0.12423655	          0.11841399	          0.11351911	          0.20025928	          0.28817817	          0.27496925	          0.21878697	          0.19688069	          0.25681531	          0.05000000	          0.07746799	          0.13737541	          0.05000006	          0.05000001	          0.05000006	          0.05000006	          0.05953401	          0.05000021	          0.22139376	          0.21627108	          0.22918393	          0.33587360	          0.23785413	          0.18177427	          0.12636224	          0.06564113	          0.13747371	          0.07746197	          0.05953280	          0.10403419	          0.23601372	          0.24893387	          0.15917471	          0.09609052	          0.05000032	          0.06401364	          0.10860942	          0.05000090	          0.09194777	          0.11786658	          0.05716049	          0.05953382	          0.45056536	          0.20200004	          0.20730994	          0.05435323	          0.08867475	          0.08874888	          0.07603072	          0.05599743	          0.05953397	          0.05010924	          0.05000010	          0.05000018	          0.05000032	          0.52155916	          0.34353087	          0.17866212	          0.26427198	          0.50579731	          0.16734683	          0.05195796	          0.13950868	          0.07088608	
          0.03432248	         -2.91812751	         -2.25786262	          6.22058110	          0.05210677	          0.91482179	         -0.00244458	        -16.27128472	         -1.51800494	          5.92005737	         27.55392994	          3.90284785	         -2.30213862	        -13.01543960	        -11.25179885	         -3.20004514	          5.05777516	          9.14645602	         -6.41277591	          3.99406460	         -3.16418978	         15.64872472	          4.27688314	         -1.31426954	          0.68526505	         -2.23805448	          4.20076832	        -13.46237880	         16.83620104	         -7.78160249	        -13.48857588	          7.05107904	         37.14950183	         15.69756035	         86.51662706	         86.51662706	          0.30397115	          0.06111248	          0.05000007	          0.26799512	          0.11708229	          0.07088593	          0.05000080	          0.05000010	          0.05000008	          0.05000010	          0.07088493	          0.12833055	          0.05000035	          0.05000045	          0.05000086	          0.05000031	          0.18377502	          0.05047941	          0.05000059	          0.05000135	          0.05000084	          0.05000055	          0.28090712	          0.55165266	          0.05000016	          0.05000049	          0.05000011	          0.16964316	          0.13008040	          0.14129791	          0.14247264	          0.16818894	          0.24202814	          0.23093455	          0.18374957	          0.16535147	          0.21568790	          0.05000012	          0.06506204	          0.13607822	          0.05000029	          0.08579675	          0.05000034	          0.06253412	          0.05000000	          0.05000001	          0.30504209	          0.31050790	          0.33200013	          0.28208561	          0.21924299	          0.22859458	          0.10612609	          0.05513009	          0.11545812	          0.06505695	          0.05000031	          0.08737374	          0.19821754	          0.20906866	          0.13368407	          0.12889724	          0.05000028	          0.05376247	          0.09121644	          0.18643438	          0.15552506	          0.13084436	          0.05000004	          0.05000005	          0.37841000	          0.16965096	          0.17411126	          0.05000004	          0.09693747	          0.10870922	          0.08407037	          0.05000001	          0.05000005	          0.05000000	          0.05000004	          0.05000015	          0.05000014	          0.60318465	          0.35956784	          0.19733216	          0.43477815	          0.53391058	          0.28446290	          0.07750236	          0.11716720	          0.05953410	
